<mxfile host="app.diagrams.net" modified="2024-04-19T12:30:37.724Z" agent="Mozilla/5.0 (Windows NT 10.0; Win64; x64) AppleWebKit/537.36 (KHTML, like Gecko) Chrome/123.0.0.0 Safari/537.36" version="23.1.4" etag="pQsyNXqxCSLVxHfgt5Fx" type="github">
  <diagram name="Page-1" id="2S4aAWq8O_3mGUZo1SEK">
    <mxGraphModel>
      <root>
        <mxCell id="0" />
        <mxCell id="1" parent="0" />
      </root>
    </mxGraphModel>
  </diagram>
</mxfile>
